# xmcd
#
# Track frame offsets:
#	187
#	16652
#	35397
#	53720
#	72565
#	89445
#	109730
#	124385
#	144285
#	159607
#
# Disc length: 2390 seconds
#
# Revision: 1
# Processed by: cddbd v1.5PL3 Copyright (c) Steve Scherf et al.
# Submitted via: CDex 1.50Beta5
#
DISCID=8309540a
DTITLE=吉川晃司 - LA VIE EN ROSE
DYEAR=1998
DGENRE=Rock
TTITLE0=NO NO サーキュレーション
TTITLE1=LA VIE EN ROSE
TTITLE2=ポラロイドの夏
TTITLE3=サイレントムーンにつつまれて
TTITLE4=サヨナラは八月のララバイ
TTITLE5=グッド・ラック・チャーム
TTITLE6=Border Line
TTITLE7=BIG SLEEP
TTITLE8=She’s gone
TTITLE9=太陽もひとりぼっち
EXTD=
EXTT0=
EXTT1=
EXTT2=
EXTT3=
EXTT4=
EXTT5=
EXTT6=
EXTT7=
EXTT8=
EXTT9=
PLAYORDER=
